<svg width="16" height="16" viewBox="0 0 16 16" fill="none" xmlns="http://www.w3.org/2000/svg">
<path d="M14.648 6.82227L15.4285 7.60273C15.759 7.9332 15.759 8.46758 15.4285 8.79453L8.59763 15.6289C8.26716 15.9594 7.73279 15.9594 7.40584 15.6289L0.57146 8.79453C0.240991 8.46406 0.240991 7.92969 0.57146 7.60273L1.35193 6.82227C1.68591 6.48828 2.23083 6.49531 2.55779 6.83633L6.59373 11.0727V0.96875C6.59373 0.501172 6.9699 0.125 7.43748 0.125H8.56248C9.03005 0.125 9.40623 0.501172 9.40623 0.96875V11.0727L13.4422 6.83633C13.7691 6.4918 14.314 6.48477 14.648 6.82227Z" fill="white"/>
</svg>
